<svg width="575" height="412" viewBox="0 0 575 412" fill="none" xmlns="http://www.w3.org/2000/svg">
<g id="reminder-svg 1" clip-path="url(#clip0)">
<g id="person">
<path id="Vector" d="M69.522 398.946L80.954 398.945L86.391 354.849L69.518 354.851L69.522 398.946Z" fill="#FFB8B8"/>
<path id="Vector_2" d="M34.386 398.946L45.818 398.945L51.255 354.849L34.382 354.851L34.386 398.946Z" fill="#FFB8B8"/>
<path id="Vector_3" d="M107.647 97.9784C106.487 98.7101 105.503 99.6871 104.762 100.841C104.021 101.994 103.542 103.296 103.359 104.654C103.176 106.013 103.292 107.395 103.701 108.704C104.11 110.012 104.8 111.215 105.724 112.228L96.637 131.633L107.083 140.032L119.531 112.447C121.13 110.782 122.062 108.589 122.151 106.283C122.24 103.976 121.481 101.718 120.016 99.9341C118.551 98.1506 116.482 96.9664 114.203 96.6059C111.923 96.2455 109.59 96.7338 107.647 97.9784V97.9784Z" fill="#FFB8B8"/>
<path id="Vector_4" d="M55.4248 105.853C58.3008 104.126 61.7314 103.571 65.0051 104.305C68.2788 105.039 71.1444 107.005 73.0077 109.795L91.6025 137.637L98.058 123.406C98.4611 122.517 99.1751 121.806 100.066 121.408C100.956 121.009 101.962 120.949 102.893 121.24L112.637 124.284C113.146 124.443 113.618 124.702 114.025 125.046C114.433 125.39 114.767 125.812 115.009 126.287C115.251 126.763 115.395 127.282 115.434 127.813C115.472 128.345 115.404 128.88 115.233 129.385L108.563 149.079C107.719 151.57 106.31 153.832 104.445 155.687C102.58 157.542 100.31 158.939 97.8147 159.769C95.3189 160.599 92.6646 160.84 90.0603 160.471C87.4559 160.103 84.9724 159.136 82.8046 157.647V157.647C81.7916 156.951 80.8571 156.147 80.0172 155.249L52.6147 125.97C51.284 124.548 50.2882 122.847 49.7002 120.99C49.1121 119.134 48.9467 117.169 49.2161 115.241C49.4856 113.312 50.1829 111.468 51.2572 109.844C52.3315 108.219 53.7554 106.856 55.4248 105.853V105.853Z" fill="#CCCCCC"/>
<path id="Vector_5" d="M115.578 77.0851C116.077 77.0975 116.551 77.3076 116.895 77.6693C117.239 78.031 117.425 78.5145 117.413 79.0136L117.253 85.4763L117.577 85.5058L117.46 89.8952L117.144 89.8557L116.569 113.008C116.549 113.801 116.242 114.559 115.704 115.141C115.166 115.724 114.435 116.091 113.647 116.174L98.9251 117.724C98.5666 117.761 98.2043 117.72 97.8634 117.603C97.5225 117.486 97.2114 117.296 96.9519 117.046C96.6923 116.796 96.4906 116.492 96.3609 116.156C96.2312 115.819 96.1765 115.459 96.2009 115.099L98.4337 82.1317C98.4806 81.4392 98.7617 80.7834 99.2307 80.2719C99.6998 79.7603 100.329 79.4237 101.015 79.3171L115.227 77.1092C115.343 77.0902 115.46 77.0821 115.578 77.0851V77.0851Z" fill="#3F3D56"/>
<path id="Vector_6" d="M104.184 80.5163L111.656 79.3556C111.79 79.3347 111.914 79.2701 112.008 79.1717C112.102 79.0733 112.161 78.9467 112.176 78.8114V78.8114C112.193 78.6582 112.259 78.5147 112.366 78.4033C112.472 78.2918 112.613 78.2186 112.765 78.195L114.339 77.9505C114.554 77.9171 114.773 77.9313 114.982 77.992C115.19 78.0527 115.383 78.1585 115.546 78.3018C115.71 78.4452 115.84 78.6226 115.927 78.8217C116.014 79.0207 116.057 79.2365 116.051 79.4537L115.243 113.021C115.233 113.437 115.069 113.836 114.785 114.14C114.5 114.444 114.113 114.632 113.698 114.669L98.9866 115.977C98.7989 115.994 98.6099 115.97 98.4323 115.906C98.2548 115.843 98.093 115.743 97.9579 115.611C97.8228 115.48 97.7177 115.321 97.6497 115.145C97.5817 114.97 97.5524 114.781 97.5638 114.593L99.5487 81.9306C99.578 81.4493 99.7709 80.9925 100.096 80.6361C100.42 80.2796 100.857 80.0449 101.333 79.9708L102.992 79.7131C103.053 79.9725 103.21 80.1993 103.431 80.3483C103.652 80.4972 103.921 80.5572 104.184 80.5163V80.5163Z" fill="white"/>
<path id="Vector_7" d="M103.067 409.313L67.137 409.317L67.1358 395.435L89.1836 395.433C91.0066 395.433 92.8118 395.792 94.4961 396.489C96.1804 397.186 97.7108 398.209 98.9999 399.498C100.289 400.787 101.312 402.317 102.01 404.001C102.707 405.685 103.067 407.49 103.067 409.313V409.313L103.067 409.313Z" fill="#2F2E41"/>
<path id="Vector_8" d="M67.931 409.313L32.0013 409.317L32 395.435L54.0479 395.433C57.7296 395.432 61.2606 396.895 63.8642 399.498C66.4678 402.101 67.9307 405.632 67.931 409.313L67.931 409.313Z" fill="#2F2E41"/>
<path id="Vector_9" d="M67.8669 90.8667C81.4316 90.8667 92.428 79.8703 92.428 66.3057C92.428 52.741 81.4316 41.7446 67.8669 41.7446C54.3023 41.7446 43.3059 52.741 43.3059 66.3057C43.3059 79.8703 54.3023 90.8667 67.8669 90.8667Z" fill="#FFB8B8"/>
<path id="Vector_10" d="M80.5075 132.018C80.3069 125.704 78.5292 119.54 75.3364 114.088C72.1436 108.636 67.6372 104.07 62.2279 100.806C55.8826 97.0669 48.9371 95.6088 43.4115 101.134C40.0935 104.536 37.4364 108.524 35.5755 112.896C30.464 124.809 30.1296 138.232 34.6415 150.386L47.793 186.72L78.2322 190.017C78.804 190.079 79.3823 190.017 79.9279 189.835C80.4735 189.654 80.9734 189.356 81.3937 188.964C81.8139 188.571 82.1446 188.092 82.3631 187.56C82.5816 187.028 82.6828 186.456 82.6598 185.881L80.5075 132.018Z" fill="#2F2E41"/>
<path id="Vector_11" d="M49.7871 182C49.7871 182 27.0457 190.49 32.9914 226.439C38.3267 258.697 34.0868 365.768 33.1601 387.412C33.116 388.443 33.4729 389.452 34.156 390.226C34.839 391.001 35.7953 391.481 36.8244 391.565L50.0994 392.672C51.1391 392.758 52.1716 392.435 52.9765 391.771C53.7814 391.108 54.2951 390.156 54.4081 389.118L61.264 326.145C61.2909 325.898 61.4089 325.669 61.595 325.504C61.781 325.34 62.0218 325.25 62.2703 325.253C62.5189 325.256 62.7574 325.352 62.9394 325.521C63.1213 325.69 63.2337 325.921 63.2546 326.169L68.3633 386.764C68.4494 387.785 68.9239 388.734 69.6891 389.415C70.4542 390.097 71.4517 390.459 72.4757 390.426L83.6259 390.073C84.1513 390.057 84.6683 389.937 85.1473 389.72C85.6263 389.504 86.058 389.195 86.4175 388.811C86.7771 388.428 87.0575 387.977 87.2427 387.485C87.428 386.993 87.5145 386.469 87.4972 385.944L80.929 186.199L49.7871 182Z" fill="#2F2E41"/>
<path id="Vector_12" d="M72.7963 64.6875C81.0106 68.0564 91.5007 64.121 95.4721 56.1805C99.4436 48.24 96.3006 37.4859 88.678 32.9339C81.0553 28.3819 70.097 30.7151 64.9898 37.9775C60.8354 30.4929 49.952 28.5847 42.4795 32.761C35.0071 36.9373 30.9369 45.6849 30.4542 54.2316C29.9714 62.7783 32.5698 71.1979 35.7395 79.1498C40.8667 92.0123 57.3725 98.938 70.1427 93.5851C64.2965 84.8778 65.4506 72.1356 72.7963 64.6875Z" fill="#2F2E41"/>
<path id="Path 395" d="M105.897 100.956C105.679 100.957 105.466 100.886 105.291 100.755L105.28 100.747L102.997 98.9999C102.891 98.9188 102.802 98.8177 102.736 98.7023C102.669 98.5869 102.626 98.4595 102.608 98.3274C102.591 98.1953 102.599 98.061 102.634 97.9323C102.668 97.8035 102.728 97.6828 102.809 97.5771C102.89 97.4713 102.991 97.3825 103.106 97.3159C103.222 97.2492 103.349 97.2059 103.481 97.1884C103.613 97.171 103.748 97.1797 103.876 97.2141C104.005 97.2486 104.126 97.3081 104.232 97.3891L105.711 98.5234L109.206 93.9634C109.287 93.8577 109.388 93.7689 109.503 93.7023C109.619 93.6356 109.746 93.5923 109.878 93.5749C110.01 93.5575 110.144 93.5662 110.273 93.6006C110.402 93.635 110.522 93.6945 110.628 93.7755L110.629 93.7758L110.607 93.8059L110.629 93.7758C110.842 93.9397 110.982 94.1815 111.017 94.4482C111.052 94.7149 110.98 94.9846 110.817 95.1982L106.706 100.559C106.61 100.683 106.488 100.783 106.348 100.851C106.208 100.92 106.054 100.956 105.898 100.955L105.897 100.956Z" fill="#64C6F5"/>
</g>
<g id="card1">
<path id="Vector_13" d="M557.874 0H243.68C239.258 0.00400352 235.017 1.76269 231.89 4.88998C228.763 8.01728 227.004 12.2576 227 16.6803V67.5991C227.004 72.0217 228.763 76.2621 231.89 79.3894C235.017 82.5167 239.258 84.2754 243.68 84.2794H557.874C562.296 84.2754 566.537 82.5167 569.664 79.3894C572.791 76.2621 574.55 72.0217 574.554 67.5991V16.6803C574.55 12.2576 572.791 8.01728 569.664 4.88998C566.537 1.76269 562.297 0.00400352 557.874 0V0Z" fill="#F2F2F2"/>
<path id="Vector_14" d="M557.49 0H243.297C238.874 0.00400616 234.634 1.76269 231.507 4.88998C228.379 8.01728 226.621 12.2576 226.617 16.6803V67.5991C226.621 72.0218 228.379 76.2621 231.507 79.3894C234.634 82.5167 238.874 84.2754 243.297 84.2794H557.49C561.913 84.2754 566.154 82.5167 569.281 79.3894C572.408 76.2621 574.167 72.0218 574.171 67.5991V16.6803C574.167 12.2576 572.408 8.01726 569.281 4.88997C566.154 1.76268 561.913 0.00400616 557.49 0ZM572.415 67.5991C572.409 71.5556 570.835 75.3485 568.037 78.1461C565.24 80.9438 561.447 82.518 557.49 82.5236H243.297C239.34 82.518 235.548 80.9438 232.75 78.1461C229.952 75.3484 228.378 71.5556 228.372 67.5991V16.6803C228.378 12.7238 229.952 8.93096 232.75 6.13329C235.548 3.33562 239.34 1.76141 243.297 1.75581H557.49C561.447 1.76141 565.24 3.33562 568.037 6.13329C570.835 8.93096 572.409 12.7238 572.415 16.6803V67.5991Z" fill="#403D5E"/>
<path id="circle2" d="M307.032 69.0645C301.29 69.0645 295.677 67.3618 290.903 64.1718C286.129 60.9817 282.407 56.4475 280.21 51.1426C278.013 45.8376 277.438 40.0002 278.558 34.3685C279.678 28.7368 282.443 23.5637 286.503 19.5034C290.563 15.4432 295.737 12.6781 301.368 11.5579C307 10.4376 312.837 11.0126 318.142 13.2099C323.447 15.4073 327.981 19.1285 331.172 23.9028C334.362 28.6771 336.064 34.2902 336.064 40.0322C336.056 47.7293 332.994 55.1087 327.552 60.5514C322.109 65.9941 314.73 69.0557 307.032 69.0645V69.0645Z" fill="#64C6F5"/>
<path id="Vector_15" d="M514.622 65.8432H363.719C361.857 65.8432 360.07 65.1033 358.753 63.7861C357.436 62.469 356.696 60.6826 356.696 58.8199C356.696 56.9572 357.436 55.1708 358.753 53.8537C360.07 52.5366 361.857 51.7966 363.719 51.7966H514.622C516.484 51.7966 518.271 52.5366 519.588 53.8537C520.905 55.1708 521.645 56.9572 521.645 58.8199C521.645 60.6826 520.905 62.469 519.588 63.7861C518.271 65.1033 516.484 65.8432 514.622 65.8432V65.8432Z" fill="#CCCCCC"/>
<path id="Vector_16" d="M413.662 35.9943H363.719C361.857 35.9943 360.07 35.2544 358.753 33.9373C357.436 32.6201 356.696 30.8337 356.696 28.971C356.696 27.1083 357.436 25.322 358.753 24.0049C360.07 22.6877 361.857 21.9478 363.719 21.9478H413.662C415.525 21.9478 417.311 22.6877 418.628 24.0049C419.945 25.322 420.685 27.1083 420.685 28.971C420.685 30.8337 419.945 32.6201 418.628 33.9373C417.311 35.2544 415.525 35.9943 413.662 35.9943V35.9943Z" fill="#CCCCCC"/>
<path id="Path 395_2" d="M305.753 52.3518C305.033 52.353 304.331 52.12 303.755 51.6879L303.719 51.6611L296.195 45.9049C295.845 45.638 295.552 45.3048 295.332 44.9245C295.111 44.5442 294.968 44.1241 294.91 43.6884C294.852 43.2526 294.881 42.8097 294.994 42.385C295.108 41.9603 295.304 41.5621 295.571 41.2133C295.839 40.8644 296.172 40.5717 296.553 40.3519C296.934 40.1321 297.354 39.9895 297.79 39.9323C298.226 39.8751 298.668 39.9044 299.093 40.0185C299.517 40.1326 299.915 40.3293 300.264 40.5973L305.138 44.3348L316.655 29.3091C316.922 28.9608 317.255 28.6684 317.635 28.4488C318.015 28.2292 318.435 28.0865 318.87 28.029C319.305 27.9715 319.747 28.0003 320.171 28.1138C320.596 28.2272 320.993 28.4231 321.341 28.6901L321.342 28.6909L321.271 28.7901L321.344 28.6909C322.047 29.231 322.507 30.0279 322.623 30.9067C322.739 31.7854 322.501 32.6743 321.963 33.3782L308.416 51.0438C308.102 51.4508 307.699 51.7802 307.238 52.0064C306.777 52.2325 306.27 52.3494 305.756 52.3479L305.753 52.3518Z" fill="white"/>
</g>
<g id="card2">
<path id="Vector_17" d="M422.491 137H108.297C103.874 137.004 99.6339 138.763 96.5066 141.89C93.3793 145.017 91.6206 149.258 91.6166 153.68V204.599C91.6206 209.022 93.3793 213.262 96.5066 216.389C99.6339 219.517 103.874 221.275 108.297 221.279H422.491C426.913 221.275 431.154 219.517 434.281 216.389C437.408 213.262 439.167 209.022 439.171 204.599V153.68C439.167 149.258 437.408 145.017 434.281 141.89C431.154 138.763 426.913 137.004 422.491 137V137Z" fill="white"/>
<path id="Vector_18" d="M422.491 137H108.297C103.874 137.004 99.6339 138.763 96.5066 141.89C93.3793 145.017 91.6206 149.258 91.6166 153.68V204.599C91.6206 209.022 93.3793 213.262 96.5066 216.389C99.6339 219.517 103.874 221.275 108.297 221.279H422.491C426.913 221.275 431.154 219.517 434.281 216.389C437.408 213.262 439.167 209.022 439.171 204.599V153.68C439.167 149.258 437.408 145.017 434.281 141.89C431.154 138.763 426.913 137.004 422.491 137V137ZM437.415 204.599C437.409 208.556 435.835 212.348 433.038 215.146C430.24 217.944 426.447 219.518 422.491 219.524H108.297C104.34 219.518 100.548 217.944 97.7499 215.146C94.9522 212.348 93.378 208.556 93.3724 204.599V153.68C93.378 149.724 94.9522 145.931 97.7499 143.133C100.548 140.336 104.34 138.761 108.297 138.756H422.491C426.447 138.761 430.24 140.336 433.038 143.133C435.835 145.931 437.409 149.724 437.415 153.68V204.599Z" fill="#3F3D56"/>
<path id="circle1" d="M172.032 206.064C166.29 206.065 160.677 204.362 155.903 201.172C151.129 197.982 147.407 193.448 145.21 188.143C143.013 182.838 142.438 177 143.558 171.368C144.678 165.737 147.443 160.564 151.503 156.503C155.564 152.443 160.737 149.678 166.368 148.558C172 147.438 177.837 148.013 183.142 150.21C188.447 152.407 192.982 156.128 196.172 160.903C199.362 165.677 201.064 171.29 201.064 177.032C201.056 184.729 197.994 192.109 192.552 197.551C187.109 202.994 179.73 206.056 172.032 206.064V206.064Z" fill="#64C6F5"/>
<path id="Vector_19" d="M379.622 202.843H228.719C226.857 202.843 225.07 202.103 223.753 200.786C222.436 199.469 221.696 197.683 221.696 195.82C221.696 193.957 222.436 192.171 223.753 190.854C225.07 189.537 226.857 188.797 228.719 188.797H379.622C381.484 188.797 383.271 189.537 384.588 190.854C385.905 192.171 386.645 193.957 386.645 195.82C386.645 197.683 385.905 199.469 384.588 200.786C383.271 202.103 381.484 202.843 379.622 202.843V202.843Z" fill="#CCCCCC"/>
<path id="Vector_20" d="M278.662 172.994H228.719C227.797 172.994 226.884 172.813 226.032 172.46C225.179 172.107 224.405 171.589 223.753 170.937C223.101 170.285 222.584 169.511 222.231 168.659C221.878 167.807 221.696 166.893 221.696 165.971C221.696 165.049 221.878 164.135 222.231 163.283C222.584 162.431 223.101 161.657 223.753 161.005C224.405 160.353 225.179 159.835 226.032 159.482C226.884 159.129 227.797 158.948 228.719 158.948H278.662C280.525 158.948 282.311 159.688 283.628 161.005C284.945 162.322 285.685 164.108 285.685 165.971C285.685 167.834 284.945 169.62 283.628 170.937C282.311 172.254 280.525 172.994 278.662 172.994V172.994Z" fill="#CCCCCC"/>
<path id="Path 395_3" d="M170.753 189.352C170.033 189.353 169.331 189.12 168.755 188.688L168.719 188.661L161.195 182.905C160.845 182.638 160.552 182.305 160.332 181.925C160.111 181.544 159.968 181.124 159.91 180.688C159.852 180.253 159.881 179.81 159.994 179.385C160.108 178.96 160.304 178.562 160.571 178.213C160.839 177.864 161.172 177.572 161.553 177.352C161.934 177.132 162.354 176.99 162.79 176.932C163.226 176.875 163.668 176.904 164.093 177.018C164.517 177.133 164.915 177.329 165.264 177.597L170.138 181.335L181.655 166.309C181.922 165.961 182.255 165.668 182.635 165.449C183.015 165.229 183.435 165.087 183.87 165.029C184.305 164.972 184.747 165 185.171 165.114C185.595 165.227 185.993 165.423 186.341 165.69L186.342 165.691L186.271 165.79L186.344 165.691C187.047 166.231 187.507 167.028 187.623 167.907C187.739 168.785 187.501 169.674 186.963 170.378L173.416 188.044C173.102 188.451 172.699 188.78 172.238 189.006C171.777 189.233 171.27 189.349 170.756 189.348L170.753 189.352Z" fill="white"/>
</g>
<g id="arm">
<path id="Vector_21" d="M98.1085 148.486C96.8459 147.952 95.4816 147.702 94.1117 147.752C92.7417 147.802 91.3995 148.152 90.1795 148.777C88.9595 149.403 87.8914 150.288 87.0505 151.37C86.2095 152.453 85.6162 153.707 85.3122 155.043L64.1919 158.662L63.2603 172.033L93.0145 166.504C95.2939 166.866 97.6269 166.379 99.5714 165.136C101.516 163.892 102.937 161.979 103.564 159.758C104.192 157.537 103.984 155.163 102.978 153.085C101.973 151.008 100.24 149.372 98.1085 148.486L98.1085 148.486Z" fill="#FFB8B8"/>
<path id="Vector_22" d="M61.8288 110.108C64.8891 111.483 67.3028 113.983 68.5693 117.089C69.8358 120.196 69.8579 123.671 68.6312 126.794L56.3885 157.956L71.7581 155.131C72.7178 154.954 73.709 155.135 74.5449 155.638C75.3808 156.142 76.0039 156.933 76.2968 157.864L79.3606 167.601C79.5207 168.11 79.5774 168.646 79.5275 169.176C79.4775 169.707 79.3219 170.223 79.0698 170.693C78.8177 171.163 78.4741 171.578 78.0594 171.913C77.6446 172.248 77.167 172.497 76.6547 172.645L56.6777 178.413C54.1507 179.143 51.4889 179.277 48.9014 178.804C46.3139 178.332 43.871 177.267 41.7645 175.692C39.6581 174.116 37.9454 172.075 36.7609 169.726C35.5764 167.378 34.9523 164.787 34.9377 162.156V162.156C34.9309 160.927 35.0572 159.701 35.3144 158.499L43.7084 119.286C44.116 117.381 44.9444 115.592 46.1329 114.05C47.3214 112.507 48.8398 111.25 50.5771 110.37C52.3143 109.49 54.2264 109.01 56.1733 108.964C58.1201 108.919 60.0525 109.31 61.8288 110.108Z" fill="#CCCCCC"/>
</g>
</g>
<defs>
<clipPath id="clip0">
<rect width="574.171" height="411.085" fill="white"/>
</clipPath>
</defs>
</svg>
